<svg width="318" height="188" viewBox="0 0 318 188" fill="none" xmlns="http://www.w3.org/2000/svg">
<mask id="path-1-outside-1_9_13" maskUnits="userSpaceOnUse" x="-0.106873" y="-0.400024" width="319" height="188" fill="black">
<rect fill="white" x="-0.106873" y="-0.400024" width="319" height="188"/>
<path d="M36 37.6H62.56C71.6267 37.6 78.24 39.7333 82.4 44C86.56 48.16 88.64 54.6133 88.64 63.36V67.84C88.64 73.6 87.68 78.2933 85.76 81.92C83.9467 85.5466 81.12 88.16 77.28 89.76V90.08C86.0267 93.0666 90.4 100.853 90.4 113.44V123.04C90.4 131.68 88.1067 138.293 83.52 142.88C79.04 147.36 72.4267 149.6 63.68 149.6H36V37.6ZM60.48 83.2C64 83.2 66.6133 82.2933 68.32 80.48C70.1333 78.6666 71.04 75.6266 71.04 71.36V65.12C71.04 61.0666 70.2933 58.1333 68.8 56.32C67.4133 54.5066 65.1733 53.6 62.08 53.6H53.6V83.2H60.48ZM63.68 133.6C66.7733 133.6 69.0667 132.8 70.56 131.2C72.0533 129.493 72.8 126.613 72.8 122.56V112.8C72.8 107.68 71.8933 104.16 70.08 102.24C68.3733 100.213 65.4933 99.2 61.44 99.2H53.6V133.6H63.68ZM126.128 151.2C117.488 151.2 110.874 148.747 106.288 143.84C101.701 138.933 99.4075 132 99.4075 123.04V64.16C99.4075 55.2 101.701 48.2666 106.288 43.36C110.874 38.4533 117.488 36 126.128 36C134.768 36 141.381 38.4533 145.968 43.36C150.554 48.2666 152.848 55.2 152.848 64.16V123.04C152.848 132 150.554 138.933 145.968 143.84C141.381 148.747 134.768 151.2 126.128 151.2ZM126.128 135.2C132.208 135.2 135.248 131.52 135.248 124.16V63.04C135.248 55.68 132.208 52 126.128 52C120.048 52 117.008 55.68 117.008 63.04V124.16C117.008 131.52 120.048 135.2 126.128 135.2ZM164.75 37.6H191.63C200.377 37.6 206.937 39.9466 211.31 44.64C215.683 49.3333 217.87 56.2133 217.87 65.28V121.92C217.87 130.987 215.683 137.867 211.31 142.56C206.937 147.253 200.377 149.6 191.63 149.6H164.75V37.6ZM191.31 133.6C194.19 133.6 196.377 132.747 197.87 131.04C199.47 129.333 200.27 126.56 200.27 122.72V64.48C200.27 60.64 199.47 57.8666 197.87 56.16C196.377 54.4533 194.19 53.6 191.31 53.6H182.35V133.6H191.31ZM243.098 101.92L221.818 37.6H240.538L252.538 78.72H252.858L264.858 37.6H281.978L260.698 101.92V149.6H243.098V101.92Z"/>
</mask>
<path d="M36 37.6H62.56C71.6267 37.6 78.24 39.7333 82.4 44C86.56 48.16 88.64 54.6133 88.64 63.36V67.84C88.64 73.6 87.68 78.2933 85.76 81.92C83.9467 85.5466 81.12 88.16 77.28 89.76V90.08C86.0267 93.0666 90.4 100.853 90.4 113.44V123.04C90.4 131.68 88.1067 138.293 83.52 142.88C79.04 147.36 72.4267 149.6 63.68 149.6H36V37.6ZM60.48 83.2C64 83.2 66.6133 82.2933 68.32 80.48C70.1333 78.6666 71.04 75.6266 71.04 71.36V65.12C71.04 61.0666 70.2933 58.1333 68.8 56.32C67.4133 54.5066 65.1733 53.6 62.08 53.6H53.6V83.2H60.48ZM63.68 133.6C66.7733 133.6 69.0667 132.8 70.56 131.2C72.0533 129.493 72.8 126.613 72.8 122.56V112.8C72.8 107.68 71.8933 104.16 70.08 102.24C68.3733 100.213 65.4933 99.2 61.44 99.2H53.6V133.6H63.68ZM126.128 151.2C117.488 151.2 110.874 148.747 106.288 143.84C101.701 138.933 99.4075 132 99.4075 123.04V64.16C99.4075 55.2 101.701 48.2666 106.288 43.36C110.874 38.4533 117.488 36 126.128 36C134.768 36 141.381 38.4533 145.968 43.36C150.554 48.2666 152.848 55.2 152.848 64.16V123.04C152.848 132 150.554 138.933 145.968 143.84C141.381 148.747 134.768 151.2 126.128 151.2ZM126.128 135.2C132.208 135.2 135.248 131.52 135.248 124.16V63.04C135.248 55.68 132.208 52 126.128 52C120.048 52 117.008 55.68 117.008 63.04V124.16C117.008 131.52 120.048 135.2 126.128 135.2ZM164.75 37.6H191.63C200.377 37.6 206.937 39.9466 211.31 44.64C215.683 49.3333 217.87 56.2133 217.87 65.28V121.92C217.87 130.987 215.683 137.867 211.31 142.56C206.937 147.253 200.377 149.6 191.63 149.6H164.75V37.6ZM191.31 133.6C194.19 133.6 196.377 132.747 197.87 131.04C199.47 129.333 200.27 126.56 200.27 122.72V64.48C200.27 60.64 199.47 57.8666 197.87 56.16C196.377 54.4533 194.19 53.6 191.31 53.6H182.35V133.6H191.31ZM243.098 101.92L221.818 37.6H240.538L252.538 78.72H252.858L264.858 37.6H281.978L260.698 101.92V149.6H243.098V101.92Z" fill="black"/>
<path d="M36 37.6V1.59998C16.1178 1.59998 0 17.7177 0 37.6H36ZM82.4 44L56.624 69.1316C56.73 69.2403 56.8368 69.3484 56.9442 69.4558L82.4 44ZM85.76 81.92L53.9436 65.076C53.8131 65.3226 53.6854 65.5707 53.5606 65.8203L85.76 81.92ZM77.28 89.76L63.4338 56.5292C50.0186 62.1189 41.28 75.2268 41.28 89.76H77.28ZM77.28 90.08H41.28C41.28 105.479 51.0741 119.173 65.6468 124.149L77.28 90.08ZM83.52 142.88L108.976 168.336L108.976 168.336L83.52 142.88ZM36 149.6H0C0 169.482 16.1178 185.6 36 185.6V149.6ZM68.32 80.48L42.8642 55.0241C42.6071 55.2812 42.354 55.5421 42.1048 55.8068L68.32 80.48ZM68.8 56.32L40.2031 78.1882C40.4661 78.5321 40.7353 78.8713 41.0106 79.2055L68.8 56.32ZM53.6 53.6V17.6C33.7178 17.6 17.6 33.7177 17.6 53.6H53.6ZM53.6 83.2H17.6C17.6 103.082 33.7178 119.2 53.6 119.2V83.2ZM70.56 131.2L96.878 155.763C97.1408 155.482 97.3991 155.196 97.6527 154.906L70.56 131.2ZM70.08 102.24L42.5432 125.429C42.9834 125.952 43.4383 126.462 43.9076 126.958L70.08 102.24ZM53.6 99.2V63.2C33.7178 63.2 17.6 79.3177 17.6 99.2H53.6ZM53.6 133.6H17.6C17.6 153.482 33.7178 169.6 53.6 169.6V133.6ZM36 37.6V73.6H62.56V37.6V1.59998H36V37.6ZM62.56 37.6V73.6C64.4185 73.6 64.4302 73.8364 63.2679 73.4615C61.9255 73.0284 59.2666 71.842 56.624 69.1316L82.4 44L108.176 18.8684C94.4072 4.74648 76.3398 1.59998 62.56 1.59998V37.6ZM82.4 44L56.9442 69.4558C54.411 66.9226 53.2593 64.3799 52.8158 63.0038C52.4278 61.7999 52.64 61.7076 52.64 63.36H88.64H124.64C124.64 49.6742 121.446 32.1341 107.856 18.5441L82.4 44ZM88.64 63.36H52.64V67.84H88.64H124.64V63.36H88.64ZM88.64 67.84H52.64C52.64 68.7661 52.5589 68.9125 52.6503 68.4657C52.7452 68.0015 53.0582 66.7486 53.9436 65.076L85.76 81.92L117.576 98.7639C123.127 88.279 124.64 77.2376 124.64 67.84H88.64ZM85.76 81.92L53.5606 65.8203C54.4916 63.9583 55.8981 61.9627 57.8412 60.1662C59.7737 58.3795 61.7668 57.2238 63.4338 56.5292L77.28 89.76L91.1262 122.991C102.715 118.162 112.174 109.591 117.959 98.0197L85.76 81.92ZM77.28 89.76H41.28V90.08H77.28H113.28V89.76H77.28ZM77.28 90.08L65.6468 124.149C64.1153 123.626 62.1518 122.666 60.1742 121.042C58.1805 119.405 56.7125 117.535 55.7318 115.789C53.9076 112.541 54.4 110.931 54.4 113.44H90.4H126.4C126.4 103.362 124.706 91.5657 118.508 80.531C111.82 68.6226 101.348 60.2575 88.9132 56.0114L77.28 90.08ZM90.4 113.44H54.4V123.04H90.4H126.4V113.44H90.4ZM90.4 123.04H54.4C54.4 124.25 54.2313 123.942 54.667 122.685C55.1597 121.264 56.2106 119.278 58.0642 117.424L83.52 142.88L108.976 168.336C122.323 154.989 126.4 137.952 126.4 123.04H90.4ZM83.52 142.88L58.0642 117.424C60.1201 115.368 62.2621 114.293 63.651 113.823C64.868 113.411 65.0749 113.6 63.68 113.6V149.6V185.6C78.2678 185.6 95.5111 181.801 108.976 168.336L83.52 142.88ZM63.68 149.6V113.6H36V149.6V185.6H63.68V149.6ZM36 149.6H72V37.6H36H0V149.6H36ZM60.48 83.2V119.2C69.7353 119.2 83.6058 116.766 94.5352 105.153L68.32 80.48L42.1048 55.8068C49.6209 47.821 58.2647 47.2 60.48 47.2V83.2ZM68.32 80.48L93.7759 105.936C105.644 94.068 107.04 79.1773 107.04 71.36H71.04H35.04C35.04 71.1269 35.0435 69.2943 35.8616 66.551C36.7174 63.6818 38.6558 59.2325 42.8642 55.0241L68.32 80.48ZM71.04 71.36H107.04V65.12H71.04H35.04V71.36H71.04ZM71.04 65.12H107.04C107.04 58.2086 106.064 44.9386 96.5894 33.4345L68.8 56.32L41.0106 79.2055C37.5646 75.0211 36.1628 71.0007 35.5925 68.7604C35.0261 66.5351 35.04 65.1461 35.04 65.12H71.04ZM68.8 56.32L97.3969 34.4518C86.9643 20.8092 72.1086 17.6 62.08 17.6V53.6V89.6C60.2382 89.6 56.7616 89.3454 52.5731 87.6501C48.0888 85.835 43.6524 82.6988 40.2031 78.1882L68.8 56.32ZM62.08 53.6V17.6H53.6V53.6V89.6H62.08V53.6ZM53.6 53.6H17.6V83.2H53.6H89.6V53.6H53.6ZM53.6 83.2V119.2H60.48V83.2V47.2H53.6V83.2ZM63.68 133.6V169.6C72.5349 169.6 86.1522 167.255 96.878 155.763L70.56 131.2L44.242 106.637C51.9811 98.3446 61.0118 97.6 63.68 97.6V133.6ZM70.56 131.2L97.6527 154.906C107.95 143.138 108.8 129.159 108.8 122.56H72.8H36.8C36.8 122.557 36.7812 121.082 37.3921 118.725C38.0038 116.366 39.5539 111.966 43.4673 107.494L70.56 131.2ZM72.8 122.56H108.8V112.8H72.8H36.8V122.56H72.8ZM72.8 112.8H108.8C108.8 106.031 108.135 90.1028 96.2524 77.5215L70.08 102.24L43.9076 126.958C39.3543 122.137 37.7789 117.322 37.2579 115.3C36.7183 113.205 36.8 112.141 36.8 112.8H72.8ZM70.08 102.24L97.6168 79.0511C86.1085 65.3849 70.4423 63.2 61.44 63.2V99.2V135.2C60.5444 135.2 50.6382 135.042 42.5432 125.429L70.08 102.24ZM61.44 99.2V63.2H53.6V99.2V135.2H61.44V99.2ZM53.6 99.2H17.6V133.6H53.6H89.6V99.2H53.6ZM53.6 133.6V169.6H63.68V133.6V97.6H53.6V133.6ZM106.288 143.84L132.586 119.256V119.256L106.288 143.84ZM106.288 43.36L132.586 67.9438V67.9438L106.288 43.36ZM145.967 43.36L119.669 67.9438V67.9438L145.967 43.36ZM145.967 143.84L119.669 119.256V119.256L145.967 143.84ZM126.128 151.2V115.2C125.152 115.2 125.721 115.056 127.209 115.608C128.874 116.225 130.869 117.419 132.586 119.256L106.288 143.84L79.9885 168.424C93.2013 182.558 110.537 187.2 126.128 187.2V151.2ZM106.288 143.84L132.586 119.256C134.151 120.93 134.962 122.615 135.306 123.655C135.604 124.554 135.408 124.517 135.408 123.04H99.4075H63.4075C63.4075 138.011 67.3237 154.875 79.9885 168.424L106.288 143.84ZM99.4075 123.04H135.408V64.16H99.4075H63.4075V123.04H99.4075ZM99.4075 64.16H135.408C135.408 62.6828 135.604 62.6458 135.306 63.5453C134.962 64.5853 134.151 66.2703 132.586 67.9438L106.288 43.36L79.9885 18.7762C67.3237 32.3246 63.4075 49.1892 63.4075 64.16H99.4075ZM106.288 43.36L132.586 67.9438C130.869 69.7809 128.874 70.9747 127.209 71.5924C125.721 72.1444 125.152 72 126.128 72V36V-3.05176e-05C110.537 -3.05176e-05 93.2013 4.64156 79.9885 18.7762L106.288 43.36ZM126.128 36V72C127.103 72 126.535 72.1444 125.046 71.5924C123.381 70.9747 121.386 69.7809 119.669 67.9438L145.967 43.36L172.266 18.7762C159.054 4.64156 141.718 -3.05176e-05 126.128 -3.05176e-05V36ZM145.967 43.36L119.669 67.9438C118.104 66.2703 117.293 64.5854 116.949 63.5453C116.651 62.6458 116.848 62.6828 116.848 64.16H152.848H188.848C188.848 49.1892 184.931 32.3246 172.266 18.7762L145.967 43.36ZM152.848 64.16H116.848V123.04H152.848H188.848V64.16H152.848ZM152.848 123.04H116.848C116.848 124.517 116.651 124.554 116.949 123.655C117.293 122.615 118.104 120.93 119.669 119.256L145.967 143.84L172.266 168.424C184.931 154.875 188.848 138.011 188.848 123.04H152.848ZM145.967 143.84L119.669 119.256C121.386 117.419 123.381 116.225 125.046 115.608C126.535 115.056 127.103 115.2 126.128 115.2V151.2V187.2C141.718 187.2 159.054 182.558 172.266 168.424L145.967 143.84ZM126.128 135.2V171.2C136.721 171.2 150.565 167.663 160.722 155.368C169.791 144.389 171.247 131.894 171.247 124.16H135.247H99.2475C99.2475 123.786 99.1839 116.81 105.213 109.512C112.33 100.897 121.614 99.2 126.128 99.2V135.2ZM135.247 124.16H171.247V63.04H135.247H99.2475V124.16H135.247ZM135.247 63.04H171.247C171.247 55.3059 169.791 42.8105 160.722 31.8322C150.565 19.5369 136.721 16 126.128 16V52V88C121.614 88 112.33 86.303 105.213 77.6877C99.1839 70.3895 99.2475 63.4141 99.2475 63.04H135.247ZM126.128 52V16C115.534 16 101.69 19.5369 91.5329 31.8322C82.4639 42.8105 81.0075 55.3059 81.0075 63.04H117.008H153.008C153.008 63.4141 153.071 70.3895 147.042 77.6877C139.925 86.303 130.641 88 126.128 88V52ZM117.008 63.04H81.0075V124.16H117.008H153.008V63.04H117.008ZM117.008 124.16H81.0075C81.0075 131.894 82.4639 144.389 91.5329 155.368C101.69 167.663 115.534 171.2 126.128 171.2V135.2V99.2C130.641 99.2 139.925 100.897 147.042 109.512C153.071 116.81 153.008 123.786 153.008 124.16H117.008ZM164.75 37.6V1.59998C144.868 1.59998 128.75 17.7177 128.75 37.6H164.75ZM211.31 44.64L184.972 69.1821L184.972 69.1821L211.31 44.64ZM164.75 149.6H128.75C128.75 169.482 144.868 185.6 164.75 185.6V149.6ZM197.87 131.04L171.607 106.418C171.325 106.719 171.048 107.024 170.777 107.334L197.87 131.04ZM197.87 56.16L170.777 79.8662C171.048 80.1761 171.325 80.4814 171.607 80.7818L197.87 56.16ZM182.35 53.6V17.6C162.468 17.6 146.35 33.7177 146.35 53.6H182.35ZM182.35 133.6H146.35C146.35 153.482 162.468 169.6 182.35 169.6V133.6ZM164.75 37.6V73.6H191.63V37.6V1.59998H164.75V37.6ZM191.63 37.6V73.6C192.882 73.6 192.446 73.7791 190.984 73.2564C189.324 72.6624 187.038 71.3994 184.972 69.1821L211.31 44.64L237.648 20.0979C224.266 5.73676 206.603 1.59998 191.63 1.59998V37.6ZM211.31 44.64L184.972 69.1821C183.093 67.1658 182.239 65.2242 181.921 64.2243C181.65 63.3699 181.87 63.5438 181.87 65.28H217.87H253.87C253.87 50.8722 250.394 33.7768 237.648 20.0978L211.31 44.64ZM217.87 65.28H181.87V121.92H217.87H253.87V65.28H217.87ZM217.87 121.92H181.87C181.87 123.656 181.65 123.83 181.921 122.976C182.239 121.976 183.093 120.034 184.972 118.018L211.31 142.56L237.648 167.102C250.394 153.423 253.87 136.328 253.87 121.92H217.87ZM211.31 142.56L184.972 118.018C187.038 115.801 189.324 114.538 190.984 113.944C192.446 113.421 192.882 113.6 191.63 113.6V149.6V185.6C206.603 185.6 224.266 181.463 237.648 167.102L211.31 142.56ZM191.63 149.6V113.6H164.75V149.6V185.6H191.63V149.6ZM164.75 149.6H200.75V37.6H164.75H128.75V149.6H164.75ZM191.31 133.6V169.6C201.562 169.6 214.874 166.276 224.963 154.746L197.87 131.04L170.777 107.334C173.977 103.677 177.921 101.024 182.022 99.4232C185.929 97.8988 189.257 97.6 191.31 97.6V133.6ZM197.87 131.04L224.133 155.662C234.955 144.119 236.27 130.174 236.27 122.72H200.27H164.27C164.27 122.304 164.295 120.426 165.08 117.702C165.896 114.875 167.706 110.578 171.607 106.418L197.87 131.04ZM200.27 122.72H236.27V64.48H200.27H164.27V122.72H200.27ZM200.27 64.48H236.27C236.27 57.0257 234.955 43.0808 224.133 31.5381L197.87 56.16L171.607 80.7818C167.706 76.6214 165.896 72.3252 165.08 69.4977C164.295 66.774 164.27 64.8955 164.27 64.48H200.27ZM197.87 56.16L224.963 32.4538C214.874 20.9239 201.562 17.6 191.31 17.6V53.6V89.6C189.257 89.6 185.929 89.3011 182.022 87.7768C177.921 86.1761 173.977 83.5231 170.777 79.8662L197.87 56.16ZM191.31 53.6V17.6H182.35V53.6V89.6H191.31V53.6ZM182.35 53.6H146.35V133.6H182.35H218.35V53.6H182.35ZM182.35 133.6V169.6H191.31V133.6V97.6H182.35V133.6ZM243.098 101.92H279.098C279.098 98.0777 278.482 94.2602 277.276 90.6123L243.098 101.92ZM221.818 37.6V1.59998C210.26 1.59998 199.405 7.14914 192.636 16.5177C185.868 25.8862 184.009 37.9348 187.639 48.9076L221.818 37.6ZM240.538 37.6L275.096 27.5148C270.614 12.1574 256.536 1.59998 240.538 1.59998V37.6ZM252.538 78.72L217.979 88.8051C222.461 104.163 236.539 114.72 252.538 114.72V78.72ZM252.858 78.72V114.72C268.855 114.72 282.934 104.163 287.416 88.8051L252.858 78.72ZM264.858 37.6V1.59998C248.859 1.59998 234.781 12.1574 230.299 27.5148L264.858 37.6ZM281.978 37.6L316.156 48.9076C319.786 37.9348 317.927 25.8862 311.159 16.5177C304.39 7.14914 293.535 1.59998 281.978 1.59998V37.6ZM260.698 101.92L226.519 90.6123C225.313 94.2602 224.698 98.0777 224.698 101.92H260.698ZM260.698 149.6V185.6C280.58 185.6 296.698 169.482 296.698 149.6H260.698ZM243.098 149.6H207.098C207.098 169.482 223.215 185.6 243.098 185.6V149.6ZM243.098 101.92L277.276 90.6123L255.996 26.2923L221.818 37.6L187.639 48.9076L208.919 113.228L243.098 101.92ZM221.818 37.6V73.6H240.538V37.6V1.59998H221.818V37.6ZM240.538 37.6L205.979 47.6851L217.979 88.8051L252.538 78.72L287.096 68.6348L275.096 27.5148L240.538 37.6ZM252.538 78.72V114.72H252.858V78.72V42.72H252.538V78.72ZM252.858 78.72L287.416 88.8051L299.416 47.6851L264.858 37.6L230.299 27.5148L218.299 68.6348L252.858 78.72ZM264.858 37.6V73.6H281.978V37.6V1.59998H264.858V37.6ZM281.978 37.6L247.799 26.2923L226.519 90.6123L260.698 101.92L294.876 113.228L316.156 48.9076L281.978 37.6ZM260.698 101.92H224.698V149.6H260.698H296.698V101.92H260.698ZM260.698 149.6V113.6H243.098V149.6V185.6H260.698V149.6ZM243.098 149.6H279.098V101.92H243.098H207.098V149.6H243.098Z" fill="#299B8E" mask="url(#path-1-outside-1_9_13)"/>
</svg>
