<svg width="588" height="600" viewBox="0 0 588 600" fill="none" xmlns="http://www.w3.org/2000/svg">
<g clip-path="url(#clip0_40_90)">
<path d="M277.297 0.214355C278.193 1.20007 281.884 7.93478 282.796 9.47061L299.098 36.9927L336.329 99.7645C342.367 109.937 350.067 122.086 355.566 132.309C354.549 134.94 350.796 141.559 349.349 144.271L336.493 168.232L297.39 239.529C291.129 250.879 283.18 264.498 277.467 275.935C274.769 276.108 271.968 276.13 269.263 276.084C255.397 275.848 241.317 276.445 227.474 276.014C234.82 288.81 242.811 301.336 250.284 314.065C251.588 316.286 252.993 318.43 254.139 320.742C253.664 323.112 248.285 332.651 246.749 335.528L231.851 363.304L198.633 425.305C190.146 441.117 181.456 457.028 173.187 472.939C168.246 473.314 160.898 473.109 155.764 473.109L124.661 473.097L19.4795 473.103C38.6027 437.068 58.8452 400.714 78.4094 364.851L195.632 149.584L249.713 50.2366L267.31 17.9819C269.643 13.6809 274.635 3.72977 277.297 0.214355ZM123.782 427.444C130.262 427.409 139.89 427.643 146.112 427.151L184.676 355.359L196.5 333.387C198.2 330.231 201.84 323.812 203.074 320.631C200.647 316.145 178.784 279.512 177.474 278.522C172.206 287.782 166.884 298.213 161.786 307.676L127.869 370.954L107.996 408.003C104.836 413.859 100.268 421.725 97.5336 427.547C106.021 427.274 115.24 427.444 123.782 427.444ZM202.378 231.968L227.788 231.995C235.25 232 243.405 232.177 250.807 231.996C262.172 211.569 273.135 190.215 284.294 169.601C289.96 159.135 297.829 145.455 302.693 134.967C300.964 131.857 278.061 93.2031 277.31 92.7253C274.192 97.4811 270.302 105.286 267.505 110.49L249.314 144.441L215.779 206.944C211.474 215.027 206.46 223.874 202.378 231.968Z" fill="white"/>
<path d="M381.078 175.884C382.042 176.327 405.887 217.03 408.076 220.72C405.99 225.747 399.761 236.492 396.975 241.736L371.366 289.534L320.74 383.927C313.12 398.089 305.473 412.922 297.653 426.917C301.251 426.375 310.246 426.472 314.265 426.457L346.293 426.398C350.538 419.256 355.062 410.329 359.02 402.902L376.762 369.867L433.576 263.955C436.301 267.86 440.344 275.148 442.849 279.368L460.536 309.22C458.778 313.257 455.898 318.296 453.762 322.254L442.45 343.245C427.766 370.81 412.391 398.625 398.047 426.308C404.135 425.927 411.603 426.012 417.767 425.994L449.344 425.982L451.711 421.702C457.07 411.448 462.783 401.121 468.261 390.905C474.598 379.093 480.994 366.68 487.612 355.055C489.719 357.911 494.339 366.155 496.358 369.557L512.963 397.6C512.131 400.06 509.623 404.464 508.282 406.963L499.774 422.76C490.85 439.561 481.835 456.313 472.732 473.016C464.538 473.487 452.567 473.103 444.123 473.1H388.197L221.39 473.051C222.617 471.492 229.26 458.461 230.724 455.748L256.643 407.449L342.326 247.778L366.787 202.176C371.029 194.215 376.405 183.367 381.078 175.884Z" fill="white"/>
<path d="M118.2 542.024L132.569 541.963C142.77 541.928 150.404 541.901 158.69 549.255C164.49 554.431 168.002 561.697 168.458 569.461C168.878 578.074 165.501 584.874 159.908 591.105C150.342 600.234 141.201 599.862 128.87 599.613C125.977 599.555 121.516 600.014 118.776 599.487C117.439 595.643 117.981 549.492 118.2 542.024ZM126.041 591.384C137.627 591.527 145.083 593.235 154.082 585.597C158.227 581.118 160.67 576.22 160.43 569.982C160.165 564.407 157.696 559.166 153.568 555.41C144.493 547.245 135.737 551.276 126.042 550.011C125.976 563.484 125.76 577.98 126.041 591.384Z" fill="white"/>
<path d="M400.074 542.015L414.559 541.96C425.179 541.933 433.239 542.103 441.41 550.113C453.211 561.688 453.027 579.501 441.51 591.266C440.66 592.139 439.746 592.948 438.776 593.686C430.172 600.202 422.109 599.745 411.978 599.601C408.779 599.557 403.748 600.011 400.745 599.598C400.37 598.585 400.054 597.026 400.063 595.933C400.209 578.048 399.591 559.878 400.074 542.015ZM408.07 591.384C420.688 591.492 426.088 593.305 435.926 585.621C444.155 575.95 444.706 563.903 434.821 554.924C426.726 547.567 417.433 551.215 408.078 550.025C407.982 563.505 407.818 577.948 408.07 591.384Z" fill="white"/>
<path d="M314.907 552.149C318.54 543.603 318.217 541.737 328.102 542.086C326.028 546.1 323.157 553.274 321.273 557.604L308.221 587.572C306.873 590.663 304.802 595.91 303.091 598.854C302.429 599.997 297.34 599.601 295.565 599.616C292.582 594.228 287.653 582.97 286.5 577.017C283.021 582.507 279.816 593.238 276.306 599.045C275.644 600.141 270.512 599.578 268.786 599.493C266.821 595.752 264.62 590.3 262.895 586.336L252.868 563.32C250.629 558.267 248.424 553.198 246.255 548.112C245.643 546.683 244.038 543.343 243.788 542.098C252.61 541.708 252.912 542.953 256.172 550.769C261.452 563.432 267.432 575.968 272.564 588.683C274.447 583.582 290.768 545.203 292.756 543.457C294.973 541.509 298.743 541.992 301.48 542.057C298.389 548.379 292.76 561.457 290.341 567.955C293.215 574.969 296.253 581.915 299.455 588.785C300.551 584.537 303.079 579.375 304.826 575.276C308.11 567.574 311.743 559.893 314.907 552.149Z" fill="white"/>
<path d="M168.214 542.115C181.301 541.579 179.987 545.982 187.823 555.562C189.97 558.187 193.006 562.23 194.521 565.157C198.681 558.867 205.497 549.674 210.443 543.82C212.364 541.547 218.053 541.998 221.085 542.109C217.254 548.203 210.934 556.008 206.549 562.09C204.059 565.371 200.682 569.01 199.095 572.801C197.714 576.099 198.554 594.471 198.313 599.654C195.707 599.578 193.428 599.528 190.801 599.546C190.492 594.184 190.6 588.823 190.629 583.459C190.645 580.371 190.836 577.137 190.339 574.081C189.493 568.86 172.042 549.108 168.468 542.59C168.382 542.431 168.299 542.273 168.214 542.115Z" fill="white"/>
<path d="M540.33 442.482C542.141 443.71 555.195 468.548 558.052 473.101C553.139 472.884 547.206 473.033 542.217 473.027L524.09 473.06C529.22 462.841 535.317 452.637 540.33 442.482Z" fill="#20A9A0"/>
<path d="M334.082 542.013C336.719 541.995 339.358 542.01 341.995 542.057C341.758 555.343 342.224 569.042 342.03 582.351C341.98 585.806 342.335 597.375 341.57 599.839C339.974 599.487 336.628 599.686 334.451 599.42C333.798 596.733 333.953 582.685 333.994 579.091C334.135 566.883 333.763 554.177 334.082 542.013Z" fill="white"/>
<path d="M73.6292 600C64.6202 597.507 57.5454 593.748 52.721 585.293C48.8391 578.423 47.8571 570.293 49.9931 562.699C52.0668 555.398 57.1391 548.748 63.8084 545.074C70.5878 541.298 78.5851 540.354 86.0577 542.449C93.811 544.67 100.337 549.932 104.154 557.039C107.83 563.859 108.459 572.174 106.169 579.548C103.805 586.925 98.6433 593.08 91.7921 596.695C88.7033 598.301 86.3199 598.887 83.106 600H73.6292ZM80.1311 591.943C91.8091 590.877 100.428 580.57 99.41 568.89C98.3928 557.206 88.1226 548.546 76.4359 549.513C64.6791 550.485 55.954 560.833 56.9774 572.584C58.0007 584.338 68.3829 593.019 80.1311 591.943Z" fill="white"/>
<path d="M482.286 600C464.998 596.089 454.292 581.352 458.332 563.643C459.994 556.362 465.004 549.483 471.399 545.622C478.158 541.561 486.25 540.349 493.905 542.241C501.464 544.186 507.945 549.044 511.935 555.753C515.925 562.342 517.118 570.255 515.249 577.728C513.286 585.472 508.279 592.093 501.365 596.092C497.978 598.06 495.282 598.878 491.565 600H482.286ZM488.535 591.955C500.24 590.968 508.938 580.69 507.971 568.983C507.001 557.279 496.739 548.566 485.031 549.516C473.295 550.465 464.561 560.757 465.528 572.49C466.498 584.224 476.805 592.942 488.535 591.955Z" fill="white"/>
<path d="M0 541.969L13.5207 541.957C20.9588 541.948 27.7742 541.096 33.543 546.823C36.5166 549.835 38.1749 553.901 38.1538 558.135C38.0946 562.951 36.1261 566.267 32.8498 569.514C45.4304 575.563 42.3296 595.45 28.9769 598.717C23.3553 600.094 19.052 599.587 13.3405 599.616C11.5583 599.625 1.76145 599.382 0.803105 600H0V541.969ZM7.56115 574.359C7.51486 579.688 7.68417 586.131 7.47829 591.331C12.2381 591.433 25.0017 592.239 28.5453 590.338C30.5323 588.806 32.7132 586.432 32.8917 583.761C33.6704 572.083 18.7212 574.081 10.8828 574.374C9.63128 574.418 8.80564 574.438 7.56115 574.359ZM7.47744 566.323C13.9038 566.461 22.8452 567.723 27.7483 563.976C32.819 558.173 29.4396 550.318 21.5778 550.113C16.9187 549.99 12.0685 550.35 7.50947 550.142C7.52781 555.135 7.67848 561.395 7.47744 566.323Z" fill="white"/>
<path d="M557.539 588.885C559.221 583.834 575.66 545.578 577.611 543.568C579.832 541.283 585.058 541.96 588 542.033V600H586.394C584.475 599.666 582.501 599.569 580.561 599.502C580.098 585.847 580.365 569.672 580.561 555.914C575.546 565.72 571.233 577.79 566.484 587.871C564.785 591.475 563.068 596.291 561.149 599.663C558.992 599.736 555.957 599.552 553.739 599.482C552.928 597.917 552.178 596.159 551.457 594.542C545.715 581.666 540.468 568.488 534.412 555.759C534.494 558.035 534.517 560.35 534.485 562.626C534.321 574.931 534.766 587.359 534.321 599.643C531.749 599.549 529.174 599.505 526.601 599.508C526.235 593.235 526.463 585.111 526.463 578.754L526.487 542.127C530.697 541.796 536.568 541.072 538.683 545.526C544.013 556.729 548.633 568.286 553.725 579.604C555.07 582.595 556.517 585.788 557.539 588.885Z" fill="white"/>
<path d="M352.738 588.873C355.012 587.628 357.107 586.524 359.776 587.294C361.302 587.734 362.603 589.14 363.877 590.057C367.454 592.632 372.904 592.421 376.727 590.523C379.323 589.234 381.066 587.294 381.886 584.502C382.458 582.551 382.39 580.538 381.306 578.778C375.901 569.991 351.174 572.529 355.39 553.116C356.236 549.217 358.715 546.015 362.116 543.976C366.116 541.579 371.477 540.782 375.992 541.984C380.621 543.214 384.415 546.123 387.491 549.695C380.987 555.199 380.955 552.208 373.841 549.929C369.262 548.464 363.693 550.82 363.048 555.964C362.585 559.653 365.632 561.911 368.679 563.127C378.669 567.112 391.027 569.4 390.157 583.149C389.512 593.247 383.067 596.865 374.641 600H366.297C359.541 597.419 356.163 595.635 352.738 588.873Z" fill="white"/>
</g>
<defs>
<clipPath id="clip0_40_90">
<rect width="588" height="600" fill="white"/>
</clipPath>
</defs>
</svg>
