<svg width="389" height="188" viewBox="0 0 389 188" fill="none" xmlns="http://www.w3.org/2000/svg">
<mask id="path-1-outside-1_9_11" maskUnits="userSpaceOnUse" x="-0.0599976" y="-0.400024" width="389" height="188" fill="black">
<rect fill="white" x="-0.0599976" y="-0.400024" width="389" height="188"/>
<path d="M36 37.6H53.6V133.6H82.56V149.6H36V37.6ZM91 37.6H108.6V149.6H91V37.6ZM144.661 151.2C136.128 151.2 129.675 148.8 125.301 144C120.928 139.093 118.741 132.107 118.741 123.04V116.64H135.381V124.32C135.381 131.573 138.421 135.2 144.501 135.2C147.488 135.2 149.728 134.347 151.221 132.64C152.821 130.827 153.621 127.947 153.621 124C153.621 119.307 152.555 115.2 150.421 111.68C148.288 108.053 144.341 103.733 138.581 98.72C131.328 92.32 126.261 86.56 123.381 81.44C120.501 76.2133 119.061 70.3466 119.061 63.84C119.061 54.9866 121.301 48.16 125.781 43.36C130.261 38.4533 136.768 36 145.301 36C153.728 36 160.075 38.4533 164.341 43.36C168.715 48.16 170.901 55.0933 170.901 64.16V68.8H154.261V63.04C154.261 59.2 153.515 56.4266 152.021 54.72C150.528 52.9066 148.341 52 145.461 52C139.595 52 136.661 55.5733 136.661 62.72C136.661 66.7733 137.728 70.56 139.861 74.08C142.101 77.6 146.101 81.8666 151.861 86.88C159.221 93.28 164.288 99.0933 167.061 104.32C169.835 109.547 171.221 115.68 171.221 122.72C171.221 131.893 168.928 138.933 164.341 143.84C159.861 148.747 153.301 151.2 144.661 151.2ZM195.073 53.6H176.673V37.6H231.073V53.6H212.673V149.6H195.073V53.6ZM239.594 37.6H287.594V53.6H257.194V83.2H281.354V99.2H257.194V133.6H287.594V149.6H239.594V37.6ZM297.719 37.6H319.799L336.919 104.64H337.239V37.6H352.919V149.6H334.839L313.719 67.84H313.399V149.6H297.719V37.6Z"/>
</mask>
<path d="M36 37.6H53.6V133.6H82.56V149.6H36V37.6ZM91 37.6H108.6V149.6H91V37.6ZM144.661 151.2C136.128 151.2 129.675 148.8 125.301 144C120.928 139.093 118.741 132.107 118.741 123.04V116.64H135.381V124.32C135.381 131.573 138.421 135.2 144.501 135.2C147.488 135.2 149.728 134.347 151.221 132.64C152.821 130.827 153.621 127.947 153.621 124C153.621 119.307 152.555 115.2 150.421 111.68C148.288 108.053 144.341 103.733 138.581 98.72C131.328 92.32 126.261 86.56 123.381 81.44C120.501 76.2133 119.061 70.3466 119.061 63.84C119.061 54.9866 121.301 48.16 125.781 43.36C130.261 38.4533 136.768 36 145.301 36C153.728 36 160.075 38.4533 164.341 43.36C168.715 48.16 170.901 55.0933 170.901 64.16V68.8H154.261V63.04C154.261 59.2 153.515 56.4266 152.021 54.72C150.528 52.9066 148.341 52 145.461 52C139.595 52 136.661 55.5733 136.661 62.72C136.661 66.7733 137.728 70.56 139.861 74.08C142.101 77.6 146.101 81.8666 151.861 86.88C159.221 93.28 164.288 99.0933 167.061 104.32C169.835 109.547 171.221 115.68 171.221 122.72C171.221 131.893 168.928 138.933 164.341 143.84C159.861 148.747 153.301 151.2 144.661 151.2ZM195.073 53.6H176.673V37.6H231.073V53.6H212.673V149.6H195.073V53.6ZM239.594 37.6H287.594V53.6H257.194V83.2H281.354V99.2H257.194V133.6H287.594V149.6H239.594V37.6ZM297.719 37.6H319.799L336.919 104.64H337.239V37.6H352.919V149.6H334.839L313.719 67.84H313.399V149.6H297.719V37.6Z" fill="black"/>
<path d="M36 37.6V1.59998C16.1178 1.59998 1.90735e-06 17.7177 1.90735e-06 37.6H36ZM53.6 37.6H89.6C89.6 17.7177 73.4823 1.59998 53.6 1.59998V37.6ZM53.6 133.6H17.6C17.6 153.482 33.7178 169.6 53.6 169.6V133.6ZM82.56 133.6H118.56C118.56 113.718 102.442 97.6 82.56 97.6V133.6ZM82.56 149.6V185.6C102.442 185.6 118.56 169.482 118.56 149.6H82.56ZM36 149.6H1.90735e-06C1.90735e-06 169.482 16.1178 185.6 36 185.6V149.6ZM36 37.6V73.6H53.6V37.6V1.59998H36V37.6ZM53.6 37.6H17.6V133.6H53.6H89.6V37.6H53.6ZM53.6 133.6V169.6H82.56V133.6V97.6H53.6V133.6ZM82.56 133.6H46.56V149.6H82.56H118.56V133.6H82.56ZM82.56 149.6V113.6H36V149.6V185.6H82.56V149.6ZM36 149.6H72V37.6H36H1.90735e-06V149.6H36ZM91 37.6V1.59998C71.1178 1.59998 55 17.7177 55 37.6H91ZM108.6 37.6H144.6C144.6 17.7177 128.482 1.59998 108.6 1.59998V37.6ZM108.6 149.6V185.6C128.482 185.6 144.6 169.482 144.6 149.6H108.6ZM91 149.6H55C55 169.482 71.1178 185.6 91 185.6V149.6ZM91 37.6V73.6H108.6V37.6V1.59998H91V37.6ZM108.6 37.6H72.6V149.6H108.6H144.6V37.6H108.6ZM108.6 149.6V113.6H91V149.6V185.6H108.6V149.6ZM91 149.6H127V37.6H91H55V149.6H91ZM125.301 144L98.4268 167.953C98.514 168.051 98.6019 168.149 98.6902 168.246L125.301 144ZM118.741 116.64V80.64C98.859 80.64 82.7413 96.7577 82.7413 116.64H118.741ZM135.381 116.64H171.381C171.381 96.7577 155.264 80.64 135.381 80.64V116.64ZM151.221 132.64L124.227 108.822C124.194 108.859 124.161 108.896 124.128 108.934L151.221 132.64ZM150.421 111.68L119.392 129.933C119.472 130.069 119.552 130.204 119.634 130.339L150.421 111.68ZM138.581 98.72L114.763 125.714C114.824 125.768 114.885 125.822 114.946 125.875L138.581 98.72ZM123.381 81.44L91.8511 98.8137C91.9018 98.9058 91.953 98.9977 92.0045 99.0894L123.381 81.44ZM125.781 43.36L152.099 67.9234C152.189 67.8273 152.278 67.7307 152.367 67.6337L125.781 43.36ZM164.341 43.36L137.175 66.9824C137.358 67.1923 137.543 67.4 137.73 67.6056L164.341 43.36ZM170.901 68.8V104.8C190.784 104.8 206.901 88.6822 206.901 68.8H170.901ZM154.261 68.8H118.261C118.261 88.6822 134.379 104.8 154.261 104.8V68.8ZM152.021 54.72L124.232 77.6055C124.46 77.8825 124.692 78.1561 124.928 78.4261L152.021 54.72ZM139.861 74.08L109.074 92.7389C109.21 92.9632 109.349 93.1861 109.489 93.4075L139.861 74.08ZM151.861 86.88L128.226 114.035C128.231 114.039 128.235 114.042 128.239 114.046L151.861 86.88ZM167.061 104.32L135.261 121.194L135.261 121.194L167.061 104.32ZM164.341 143.84L138.042 119.256C137.946 119.359 137.851 119.462 137.756 119.566L164.341 143.84ZM144.661 151.2V115.2C143.691 115.2 144.349 115.055 145.97 115.658C147.787 116.334 150.003 117.658 151.912 119.754L125.301 144L98.6902 168.246C111.857 182.697 129.353 187.2 144.661 187.2V151.2ZM125.301 144L152.176 120.047C153.762 121.826 154.478 123.497 154.738 124.327C154.957 125.028 154.741 124.759 154.741 123.04H118.741H82.7413C82.7413 137.577 86.2685 154.312 98.4268 167.953L125.301 144ZM118.741 123.04H154.741V116.64H118.741H82.7413V123.04H118.741ZM118.741 116.64V152.64H135.381V116.64V80.64H118.741V116.64ZM135.381 116.64H99.3813V124.32H135.381H171.381V116.64H135.381ZM135.381 124.32H99.3813C99.3813 132.099 100.879 144.639 110.072 155.606C120.285 167.79 134.081 171.2 144.501 171.2V135.2V99.2C148.842 99.2 158.078 100.797 165.251 109.354C171.403 116.694 171.381 123.794 171.381 124.32H135.381ZM144.501 135.2V171.2C154.38 171.2 167.981 168.155 178.314 156.346L151.221 132.64L124.128 108.934C131.475 100.538 140.596 99.2 144.501 99.2V135.2ZM151.221 132.64L178.215 156.458C188.321 145.005 189.621 131.522 189.621 124H153.621H117.621C117.621 123.691 117.636 122 118.335 119.485C119.056 116.888 120.674 112.849 124.227 108.822L151.221 132.64ZM153.621 124H189.621C189.621 113.67 187.209 102.922 181.208 93.0211L150.421 111.68L119.634 130.339C118.834 129.018 118.295 127.675 117.977 126.45C117.667 125.254 117.621 124.387 117.621 124H153.621ZM150.421 111.68L181.451 93.4272C176.356 84.7654 168.928 77.4065 162.216 71.565L138.581 98.72L114.946 125.875C117.084 127.735 118.464 129.106 119.283 130.001C120.169 130.971 119.979 130.932 119.392 129.933L150.421 111.68ZM138.581 98.72L162.4 71.7258C159.632 69.2837 157.685 67.3155 156.372 65.823C155.024 64.2907 154.66 63.6155 154.758 63.7906L123.381 81.44L92.0045 99.0894C97.7285 109.265 106.177 118.139 114.763 125.714L138.581 98.72ZM123.381 81.44L154.911 64.0662C154.956 64.1467 155 64.2396 155.037 64.3363C155.075 64.4328 155.095 64.5044 155.103 64.5383C155.112 64.5713 155.102 64.5426 155.09 64.4384C155.078 64.333 155.061 64.1375 155.061 63.84H119.061H83.0612C83.0612 75.8594 85.7788 87.7936 91.8511 98.8137L123.381 81.44ZM119.061 63.84H155.061C155.061 62.3755 155.255 62.3663 154.947 63.3037C154.593 64.3831 153.751 66.1538 152.099 67.9234L125.781 43.36L99.4633 18.7965C86.8588 32.3013 83.0612 49.1032 83.0612 63.84H119.061ZM125.781 43.36L152.367 67.6337C150.605 69.5635 148.519 70.8477 146.722 71.5251C145.111 72.1327 144.42 72 145.301 72V36V-3.05176e-05C129.707 -3.05176e-05 112.315 4.71759 99.1958 19.0863L125.781 43.36ZM145.301 36V72C146.097 72 145.225 72.1235 143.401 71.4185C141.368 70.6327 139.07 69.1612 137.175 66.9824L164.341 43.36L191.507 19.7375C178.504 4.78458 160.856 -3.05176e-05 145.301 -3.05176e-05V36ZM164.341 43.36L137.73 67.6056C136.001 65.7075 135.217 63.9024 134.928 62.9881C134.683 62.2106 134.901 62.4325 134.901 64.16H170.901H206.901C206.901 49.6851 203.399 32.7751 190.952 19.1143L164.341 43.36ZM170.901 64.16H134.901V68.8H170.901H206.901V64.16H170.901ZM170.901 68.8V32.8H154.261V68.8V104.8H170.901V68.8ZM154.261 68.8H190.261V63.04H154.261H118.261V68.8H154.261ZM154.261 63.04H190.261C190.261 56.0502 189.183 42.521 179.114 31.0138L152.021 54.72L124.928 78.4261C121.225 74.1934 119.624 69.9839 118.939 67.439C118.268 64.9466 118.261 63.2906 118.261 63.04H154.261ZM152.021 54.72L179.811 31.8345C169.946 19.8559 156.429 16 145.461 16V52V88C143.168 88 139.587 87.6406 135.473 85.9347C131.164 84.1483 127.263 81.2859 124.232 77.6055L152.021 54.72ZM145.461 52V16C134.899 16 121.115 19.5606 111.036 31.8382C102.074 42.7557 100.661 55.1342 100.661 62.72H136.661H172.661C172.661 63.159 172.715 70.1776 166.687 77.5217C159.541 86.2261 150.157 88 145.461 88V52ZM136.661 62.72H100.661C100.661 73.4588 103.586 83.6841 109.074 92.7389L139.861 74.08L170.648 55.4211C171.187 56.3104 171.725 57.4639 172.113 58.839C172.501 60.2177 172.661 61.5473 172.661 62.72H136.661ZM139.861 74.08L109.489 93.4075C114.531 101.33 121.638 108.301 128.226 114.035L151.861 86.88L175.496 59.725C173.274 57.7913 171.765 56.3228 170.805 55.2981C169.777 54.2021 169.78 54.041 170.233 54.7525L139.861 74.08ZM151.861 86.88L128.239 114.046C130.978 116.428 132.84 118.313 134.042 119.693C135.28 121.114 135.484 121.615 135.261 121.194L167.061 104.32L198.862 87.4462C193.105 76.597 184.3 67.3809 175.484 59.7142L151.861 86.88ZM167.061 104.32L135.261 121.194C135.061 120.818 135.034 120.629 135.068 120.779C135.107 120.952 135.221 121.558 135.221 122.72H171.221H207.221C207.221 110.91 204.871 98.7714 198.862 87.4462L167.061 104.32ZM171.221 122.72H135.221C135.221 124.387 135.004 124.551 135.272 123.729C135.586 122.763 136.388 121.026 138.042 119.256L164.341 143.84L190.64 168.424C203.441 154.73 207.221 137.636 207.221 122.72H171.221ZM164.341 143.84L137.756 119.566C139.569 117.58 141.688 116.3 143.451 115.641C145.023 115.053 145.646 115.2 144.661 115.2V151.2V187.2C160.204 187.2 177.725 182.573 190.927 168.114L164.341 143.84ZM195.073 53.6H231.073C231.073 33.7177 214.955 17.6 195.073 17.6V53.6ZM176.673 53.6H140.673C140.673 73.4822 156.79 89.6 176.673 89.6V53.6ZM176.673 37.6V1.59998C156.79 1.59998 140.673 17.7177 140.673 37.6H176.673ZM231.073 37.6H267.073C267.073 17.7177 250.955 1.59998 231.073 1.59998V37.6ZM231.073 53.6V89.6C250.955 89.6 267.073 73.4822 267.073 53.6L231.073 53.6ZM212.673 53.6V17.6C192.79 17.6 176.673 33.7177 176.673 53.6H212.673ZM212.673 149.6V185.6C232.555 185.6 248.673 169.482 248.673 149.6H212.673ZM195.073 149.6H159.073C159.073 169.482 175.19 185.6 195.073 185.6V149.6ZM195.073 53.6V17.6H176.673V53.6V89.6H195.073V53.6ZM176.673 53.6H212.673V37.6H176.673H140.673V53.6H176.673ZM176.673 37.6V73.6H231.073V37.6V1.59998H176.673V37.6ZM231.073 37.6H195.073V53.6H231.073H267.073V37.6H231.073ZM231.073 53.6V17.6H212.673V53.6V89.6H231.073V53.6ZM212.673 53.6H176.673V149.6H212.673H248.673V53.6H212.673ZM212.673 149.6V113.6H195.073V149.6V185.6H212.673V149.6ZM195.073 149.6H231.073V53.6H195.073H159.073V149.6H195.073ZM239.594 37.6V1.59998C219.712 1.59998 203.594 17.7177 203.594 37.6H239.594ZM287.594 37.6H323.594C323.594 17.7177 307.476 1.59998 287.594 1.59998V37.6ZM287.594 53.6V89.6C307.476 89.6 323.594 73.4822 323.594 53.6L287.594 53.6ZM257.194 53.6V17.6C237.311 17.6 221.194 33.7177 221.194 53.6H257.194ZM257.194 83.2H221.194C221.194 103.082 237.311 119.2 257.194 119.2V83.2ZM281.354 83.2H317.354C317.354 63.3177 301.236 47.2 281.354 47.2V83.2ZM281.354 99.2V135.2C301.236 135.2 317.354 119.082 317.354 99.2H281.354ZM257.194 99.2V63.2C237.311 63.2 221.194 79.3177 221.194 99.2H257.194ZM257.194 133.6H221.194C221.194 153.482 237.311 169.6 257.194 169.6V133.6ZM287.594 133.6H323.594C323.594 113.718 307.476 97.6 287.594 97.6V133.6ZM287.594 149.6V185.6C307.476 185.6 323.594 169.482 323.594 149.6H287.594ZM239.594 149.6H203.594C203.594 169.482 219.712 185.6 239.594 185.6V149.6ZM239.594 37.6V73.6H287.594V37.6V1.59998H239.594V37.6ZM287.594 37.6H251.594V53.6H287.594H323.594V37.6H287.594ZM287.594 53.6V17.6H257.194V53.6V89.6H287.594V53.6ZM257.194 53.6H221.194V83.2H257.194H293.194V53.6H257.194ZM257.194 83.2V119.2H281.354V83.2V47.2H257.194V83.2ZM281.354 83.2H245.354V99.2H281.354H317.354V83.2H281.354ZM281.354 99.2V63.2H257.194V99.2V135.2H281.354V99.2ZM257.194 99.2H221.194V133.6H257.194H293.194V99.2H257.194ZM257.194 133.6V169.6H287.594V133.6V97.6H257.194V133.6ZM287.594 133.6H251.594V149.6H287.594H323.594V133.6H287.594ZM287.594 149.6V113.6H239.594V149.6V185.6H287.594V149.6ZM239.594 149.6H275.594V37.6H239.594H203.594V149.6H239.594ZM297.719 37.6V1.59998C277.836 1.59998 261.719 17.7177 261.719 37.6H297.719ZM319.799 37.6L354.679 28.6925C350.609 12.7525 336.25 1.59998 319.799 1.59998V37.6ZM336.919 104.64L302.038 113.547C306.109 129.487 320.467 140.64 336.919 140.64V104.64ZM337.239 104.64V140.64C357.121 140.64 373.239 124.522 373.239 104.64H337.239ZM337.239 37.6V1.59998C317.357 1.59998 301.239 17.7177 301.239 37.6H337.239ZM352.919 37.6H388.919C388.919 17.7177 372.801 1.59998 352.919 1.59998V37.6ZM352.919 149.6V185.6C372.801 185.6 388.919 169.482 388.919 149.6H352.919ZM334.839 149.6L299.983 158.604C304.088 174.497 318.424 185.6 334.839 185.6V149.6ZM313.719 67.84L348.575 58.8361C344.469 42.9433 330.133 31.84 313.719 31.84V67.84ZM313.399 67.84V31.84C293.517 31.84 277.399 47.9577 277.399 67.84L313.399 67.84ZM313.399 149.6V185.6C333.281 185.6 349.399 169.482 349.399 149.6H313.399ZM297.719 149.6H261.719C261.719 169.482 277.836 185.6 297.719 185.6V149.6ZM297.719 37.6V73.6H319.799V37.6V1.59998H297.719V37.6ZM319.799 37.6L284.918 46.5074L302.038 113.547L336.919 104.64L371.799 95.7325L354.679 28.6925L319.799 37.6ZM336.919 104.64V140.64H337.239V104.64V68.64H336.919V104.64ZM337.239 104.64H373.239V37.6H337.239H301.239V104.64H337.239ZM337.239 37.6V73.6H352.919V37.6V1.59998H337.239V37.6ZM352.919 37.6H316.919V149.6H352.919H388.919V37.6H352.919ZM352.919 149.6V113.6H334.839V149.6V185.6H352.919V149.6ZM334.839 149.6L369.695 140.596L348.575 58.8361L313.719 67.84L278.863 76.8438L299.983 158.604L334.839 149.6ZM313.719 67.84V31.84H313.399V67.84V103.84H313.719V67.84ZM313.399 67.84H277.399V149.6H313.399H349.399V67.84H313.399ZM313.399 149.6V113.6H297.719V149.6V185.6H313.399V149.6ZM297.719 149.6H333.719V37.6H297.719H261.719V149.6H297.719Z" fill="#299B8E" mask="url(#path-1-outside-1_9_11)"/>
</svg>
