<svg width="588" height="59" viewBox="0 0 588 59" fill="none" xmlns="http://www.w3.org/2000/svg">
<g clip-path="url(#clip0_67_4)">
<path d="M118.2 1.02425L132.569 0.96274C142.77 0.927584 150.404 0.901221 158.69 8.25474C164.49 13.4315 168.002 20.6971 168.458 28.4608C168.878 37.0741 165.501 43.8739 159.908 50.1053C150.342 59.2342 141.201 58.8622 128.87 58.6131C125.977 58.5545 121.516 59.0145 118.776 58.4871C117.439 54.6434 117.981 8.49203 118.2 1.02425ZM126.041 50.3836C137.627 50.5272 145.083 52.2352 154.082 44.5975C158.227 40.118 160.67 35.2196 160.43 28.9823C160.165 23.4071 157.696 18.1659 153.568 14.41C144.493 6.24497 135.737 10.2762 126.042 9.01058C125.976 22.4842 125.76 36.9803 126.041 50.3836Z" fill="white"/>
<path d="M400.074 1.01539L414.559 0.959744C425.179 0.933377 433.239 1.10329 441.41 9.11305C453.211 20.6882 453.027 38.5007 441.51 50.2664C440.66 51.1394 439.746 51.948 438.776 52.6863C430.172 59.2019 422.109 58.7449 411.978 58.6013C408.779 58.5574 403.748 59.0115 400.745 58.5984C400.37 57.5847 400.054 56.0261 400.063 54.9334C400.209 37.0476 399.591 18.8777 400.074 1.01539ZM408.07 50.3836C420.688 50.492 426.088 52.3055 435.926 44.6209C444.155 34.95 444.706 22.9031 434.821 13.9236C426.726 6.56717 417.433 10.2146 408.078 9.02518C407.982 22.5047 407.818 36.948 408.07 50.3836Z" fill="white"/>
<path d="M314.907 11.1493C318.54 2.60344 318.217 0.737198 328.102 1.08583C326.028 5.0995 323.157 12.2743 321.273 16.6044L308.221 46.5722C306.873 49.663 304.802 54.9101 303.091 57.8544C302.429 58.997 297.34 58.6015 295.565 58.6161C292.582 53.2284 287.653 41.9696 286.5 36.0165C283.021 41.5068 279.816 52.2382 276.306 58.0448C275.644 59.1405 270.512 58.578 268.786 58.4931C266.821 54.7519 264.62 49.2997 262.895 45.3358L252.868 22.3202C250.629 17.2665 248.424 12.1982 246.255 7.11222C245.643 5.68253 244.038 2.34268 243.788 1.09756C252.61 0.707912 252.912 1.95302 256.172 9.76943C261.452 22.4315 267.432 34.9677 272.564 47.6825C274.447 42.5819 290.768 4.20303 292.756 2.45694C294.973 0.508698 298.743 0.992088 301.48 1.05654C298.389 7.37881 292.76 20.4569 290.341 26.955C293.215 33.9687 296.253 40.9149 299.455 47.7851C300.551 43.537 303.079 38.3749 304.826 34.2763C308.11 26.5741 311.743 18.8925 314.907 11.1493Z" fill="white"/>
<path d="M168.215 1.11503C181.301 0.5789 179.987 4.98219 187.823 14.5623C189.97 17.1873 193.006 21.2302 194.521 24.157C198.681 17.867 205.497 8.67361 210.443 2.8201C212.364 0.546658 218.053 0.99784 221.086 1.10917C217.254 7.20292 210.934 15.0076 206.549 21.0896C204.059 24.3709 200.682 28.0096 199.095 31.8006C197.715 35.0994 198.554 53.4714 198.313 58.6541C195.707 58.5779 193.428 58.5281 190.801 58.5457C190.492 53.1843 190.6 47.823 190.629 42.4588C190.645 39.3709 190.836 36.1365 190.34 33.0808C189.493 27.8601 172.043 8.1082 168.468 1.58964C168.382 1.43144 168.299 1.27324 168.215 1.11503Z" fill="white"/>
<path d="M334.082 1.01256C336.719 0.994983 339.358 1.00964 341.995 1.05651C341.758 14.3426 342.224 28.0419 342.03 41.3514C341.98 44.8055 342.335 56.3749 341.57 58.8387C339.974 58.4872 336.628 58.6864 334.451 58.4198C333.798 55.7333 333.953 41.6854 333.994 38.0907C334.135 25.8827 333.763 13.1766 334.082 1.01256Z" fill="white"/>
<path d="M73.6292 59C64.6202 56.5068 57.5454 52.748 52.721 44.2929C48.8391 37.4228 47.8571 29.2929 49.9931 21.6992C52.0668 14.3984 57.1391 7.74801 63.8084 4.07418C70.5878 0.297817 78.5851 -0.645531 86.0577 1.4492C93.811 3.6699 100.337 8.9316 104.154 16.039C107.83 22.8593 108.459 31.1738 106.169 38.5478C103.805 45.9247 98.6433 52.08 91.7921 55.6953C88.7033 57.3007 86.3199 57.8867 83.106 59H73.6292ZM80.1311 50.9433C91.8091 49.8769 100.428 39.5703 99.41 27.8896C98.3928 16.206 88.1226 7.54587 76.4359 8.51267C64.6791 9.48532 55.954 19.833 56.9774 31.584C58.0007 43.3379 68.3829 52.0185 80.1311 50.9433Z" fill="white"/>
<path d="M482.286 58.9999C464.998 55.0888 454.292 40.3525 458.332 22.6425C459.994 15.3622 465.004 8.48334 471.399 4.62201C478.158 0.561461 486.25 -0.651441 493.905 1.24114C501.464 3.18645 507.945 8.04387 511.935 14.7529C515.925 21.3417 517.118 29.2548 515.249 36.7284C513.286 44.4716 508.279 51.0927 501.365 55.0917C497.978 57.0605 495.282 57.8779 491.565 58.9999H482.286ZM488.535 50.955C500.24 49.9677 508.938 39.6904 507.971 27.9833C507.001 16.2792 496.739 7.56636 485.031 8.51557C473.295 9.46479 464.561 19.7568 465.528 31.4902C466.498 43.2236 476.805 51.9423 488.535 50.955Z" fill="white"/>
<path d="M0 0.968614L13.5207 0.956884C20.9588 0.948095 27.7742 0.0955521 33.543 5.82309C36.5166 8.83481 38.1749 12.9012 38.1538 17.1346C38.0946 21.951 36.1261 25.2674 32.8498 28.5135C45.4304 34.5633 42.3296 54.45 28.9769 57.7166C23.3553 59.0936 19.052 58.5867 13.3405 58.616C11.5583 58.6248 1.76145 58.3817 0.803105 58.9999H0V0.968614ZM7.56115 33.3592C7.51486 38.6883 7.68417 45.1307 7.47829 50.3309C12.2381 50.4335 25.0017 51.2391 28.5453 49.3377C30.5323 47.8055 32.7132 45.4325 32.8917 42.7606C33.6704 31.0828 18.7212 33.0809 10.8828 33.3739C9.63128 33.4178 8.80564 33.4383 7.56115 33.3592ZM7.47744 25.3231C13.9038 25.4608 22.8452 26.7235 27.7483 22.9764C32.819 17.1727 29.4396 9.3182 21.5778 9.11312C16.9187 8.99008 12.0685 9.35042 7.50947 9.14241C7.52781 14.1346 7.67848 20.3954 7.47744 25.3231Z" fill="white"/>
<path d="M557.539 47.8849C559.221 42.8341 575.66 4.57827 577.611 2.5685C579.832 0.283343 585.058 0.960104 588 1.03335V59.0001H586.394C584.475 58.6662 582.501 58.5695 580.561 58.5021C580.098 44.8468 580.365 28.672 580.561 14.9142C575.546 24.7199 571.233 36.7902 566.484 46.8712C564.785 50.4747 563.068 55.2911 561.149 58.6632C558.992 58.7365 555.957 58.5519 553.739 58.4816C552.928 56.9171 552.178 55.1593 551.457 53.5421C545.715 40.6662 540.468 27.4884 534.412 14.7589C534.494 17.0353 534.517 19.3498 534.485 21.6261C534.321 33.9308 534.766 46.3585 534.321 58.6427C531.749 58.549 529.174 58.505 526.601 58.5079C526.235 52.2355 526.463 44.1115 526.463 37.754L526.487 1.12708C530.697 0.796026 536.568 0.0724216 538.683 4.52555C544.013 15.7287 548.633 27.2863 553.725 38.6037C555.07 41.5949 556.517 44.7882 557.539 47.8849Z" fill="white"/>
<path d="M352.739 47.8732C355.012 46.6281 357.107 45.5236 359.776 46.2941C361.302 46.7336 362.603 48.1399 363.877 49.0569C367.455 51.632 372.904 51.4211 376.727 49.5227C379.323 48.2336 381.066 46.2941 381.887 43.5021C382.458 41.551 382.39 39.5383 381.306 37.7776C375.901 28.9914 351.174 31.5285 355.39 12.1164C356.237 8.21698 358.715 5.01485 362.117 2.97579C366.116 0.579301 371.477 -0.217588 375.992 0.983584C380.621 2.21405 384.415 5.12325 387.491 8.69454C380.987 14.1994 380.955 11.2082 373.841 8.92889C369.262 7.46405 363.693 9.81951 363.048 14.964C362.585 18.6525 365.632 20.9113 368.679 22.1272C378.67 26.1115 391.027 28.3996 390.157 42.1486C389.513 52.2473 383.067 55.8654 374.641 59.0002H366.297C359.541 56.4191 356.163 54.635 352.739 47.8732Z" fill="white"/>
</g>
<defs>
<clipPath id="clip0_67_4">
<rect width="588" height="59.0002" fill="white"/>
</clipPath>
</defs>
</svg>
