<svg width="540" height="474" viewBox="0 0 540 474" fill="none" xmlns="http://www.w3.org/2000/svg">
<g clip-path="url(#clip0_67_18)">
<path d="M258.297 0.214355C259.193 1.20007 262.884 7.93478 263.796 9.47061L280.098 36.9927L317.329 99.7645C323.367 109.937 331.067 122.086 336.566 132.309C335.549 134.94 331.796 141.559 330.349 144.271L317.493 168.232L278.39 239.529C272.129 250.879 264.18 264.498 258.467 275.935C255.769 276.108 252.968 276.13 250.263 276.084C236.397 275.848 222.317 276.445 208.474 276.014C215.82 288.81 223.811 301.336 231.284 314.065C232.588 316.286 233.993 318.43 235.139 320.742C234.664 323.112 229.285 332.651 227.749 335.528L212.851 363.304L179.633 425.305C171.146 441.117 162.456 457.028 154.187 472.939C149.246 473.314 141.898 473.109 136.764 473.109L105.661 473.097L0.479492 473.103C19.6027 437.068 39.8452 400.714 59.4094 364.851L176.632 149.584L230.713 50.2366L248.31 17.9819C250.643 13.6809 255.635 3.72977 258.297 0.214355ZM104.782 427.444C111.262 427.409 120.89 427.643 127.112 427.151L165.676 355.359L177.5 333.387C179.2 330.231 182.84 323.812 184.074 320.631C181.647 316.145 159.784 279.512 158.474 278.522C153.206 287.782 147.884 298.213 142.786 307.676L108.869 370.954L88.9958 408.003C85.8363 413.859 81.268 421.725 78.5336 427.547C87.0211 427.274 96.2396 427.444 104.782 427.444ZM183.378 231.968L208.788 231.995C216.25 232 224.405 232.177 231.807 231.996C243.172 211.569 254.135 190.215 265.294 169.601C270.96 159.135 278.829 145.455 283.693 134.967C281.964 131.857 259.061 93.2031 258.31 92.7253C255.192 97.4811 251.302 105.286 248.505 110.49L230.314 144.441L196.779 206.944C192.474 215.027 187.46 223.874 183.378 231.968Z" fill="white"/>
<path d="M362.078 175.884C363.042 176.327 386.887 217.03 389.076 220.72C386.99 225.747 380.761 236.492 377.975 241.736L352.366 289.534L301.74 383.927C294.12 398.089 286.473 412.922 278.653 426.917C282.251 426.375 291.246 426.472 295.265 426.457L327.293 426.398C331.538 419.256 336.062 410.329 340.02 402.902L357.762 369.867L414.576 263.955C417.301 267.86 421.344 275.148 423.849 279.368L441.536 309.22C439.778 313.257 436.898 318.296 434.762 322.254L423.45 343.245C408.766 370.81 393.391 398.625 379.047 426.308C385.135 425.927 392.603 426.012 398.767 425.994L430.344 425.982L432.711 421.702C438.07 411.448 443.783 401.121 449.261 390.905C455.598 379.093 461.994 366.68 468.612 355.055C470.719 357.911 475.339 366.155 477.358 369.557L493.963 397.6C493.131 400.06 490.623 404.464 489.282 406.963L480.774 422.76C471.85 439.561 462.835 456.313 453.732 473.016C445.538 473.487 433.567 473.103 425.123 473.1H369.197L202.39 473.051C203.617 471.492 210.26 458.461 211.724 455.748L237.643 407.449L323.326 247.778L347.787 202.176C352.029 194.215 357.405 183.367 362.078 175.884Z" fill="white"/>
<path d="M521.33 442.482C523.141 443.71 536.196 468.548 539.052 473.101C534.139 472.884 528.206 473.033 523.217 473.027L505.091 473.06C510.221 462.841 516.317 452.637 521.33 442.482Z" fill="#20A9A0"/>
</g>
<defs>
<clipPath id="clip0_67_18">
<rect width="540" height="474" fill="white"/>
</clipPath>
</defs>
</svg>
