<svg width="467" height="188" viewBox="0 0 467 188" fill="none" xmlns="http://www.w3.org/2000/svg">
<mask id="path-1-outside-1_9_12" maskUnits="userSpaceOnUse" x="-0.185623" y="-0.400024" width="468" height="188" fill="black">
<rect fill="white" x="-0.185623" y="-0.400024" width="468" height="188"/>
<path d="M54.4 53.6H36V37.6H90.4V53.6H72V149.6H54.4V53.6ZM123.736 151.2C115.096 151.2 108.483 148.747 103.896 143.84C99.3096 138.933 97.0163 132 97.0163 123.04V64.16C97.0163 55.2 99.3096 48.2666 103.896 43.36C108.483 38.4533 115.096 36 123.736 36C132.376 36 138.99 38.4533 143.576 43.36C148.163 48.2666 150.456 55.2 150.456 64.16V123.04C150.456 132 148.163 138.933 143.576 143.84C138.99 148.747 132.376 151.2 123.736 151.2ZM123.736 135.2C129.816 135.2 132.856 131.52 132.856 124.16V63.04C132.856 55.68 129.816 52 123.736 52C117.656 52 114.616 55.68 114.616 63.04V124.16C114.616 131.52 117.656 135.2 123.736 135.2ZM204.144 101.92L182.864 37.6H201.584L213.584 78.72H213.904L225.904 37.6H243.024L221.744 101.92V149.6H204.144V101.92ZM273.58 151.2C264.94 151.2 258.327 148.747 253.74 143.84C249.153 138.933 246.86 132 246.86 123.04V64.16C246.86 55.2 249.153 48.2666 253.74 43.36C258.327 38.4533 264.94 36 273.58 36C282.22 36 288.833 38.4533 293.42 43.36C298.007 48.2666 300.3 55.2 300.3 64.16V123.04C300.3 132 298.007 138.933 293.42 143.84C288.833 148.747 282.22 151.2 273.58 151.2ZM273.58 135.2C279.66 135.2 282.7 131.52 282.7 124.16V63.04C282.7 55.68 279.66 52 273.58 52C267.5 52 264.46 55.68 264.46 63.04V124.16C264.46 131.52 267.5 135.2 273.58 135.2ZM337.803 151.2C329.269 151.2 322.763 148.8 318.283 144C313.803 139.093 311.563 132.107 311.563 123.04V37.6H329.163V124.32C329.163 128.16 329.909 130.933 331.403 132.64C333.003 134.347 335.243 135.2 338.123 135.2C341.003 135.2 343.189 134.347 344.683 132.64C346.283 130.933 347.083 128.16 347.083 124.32V37.6H364.043V123.04C364.043 132.107 361.803 139.093 357.323 144C352.843 148.8 346.336 151.2 337.803 151.2ZM376.578 37.6H402.658C411.724 37.6 418.338 39.7333 422.498 44C426.658 48.16 428.738 54.6133 428.738 63.36V70.24C428.738 81.8666 424.898 89.2266 417.218 92.32V92.64C421.484 93.92 424.471 96.5333 426.178 100.48C427.991 104.427 428.898 109.707 428.898 116.32V136C428.898 139.2 429.004 141.813 429.218 143.84C429.431 145.76 429.964 147.68 430.818 149.6H412.898C412.258 147.787 411.831 146.08 411.618 144.48C411.404 142.88 411.298 140 411.298 135.84V115.36C411.298 110.24 410.444 106.667 408.738 104.64C407.138 102.613 404.311 101.6 400.258 101.6H394.178V149.6H376.578V37.6ZM400.578 85.6C404.098 85.6 406.711 84.6933 408.418 82.88C410.231 81.0666 411.138 78.0266 411.138 73.76V65.12C411.138 61.0666 410.391 58.1333 408.898 56.32C407.511 54.5066 405.271 53.6 402.178 53.6H394.178V85.6H400.578Z"/>
</mask>
<path d="M54.4 53.6H36V37.6H90.4V53.6H72V149.6H54.4V53.6ZM123.736 151.2C115.096 151.2 108.483 148.747 103.896 143.84C99.3096 138.933 97.0163 132 97.0163 123.04V64.16C97.0163 55.2 99.3096 48.2666 103.896 43.36C108.483 38.4533 115.096 36 123.736 36C132.376 36 138.99 38.4533 143.576 43.36C148.163 48.2666 150.456 55.2 150.456 64.16V123.04C150.456 132 148.163 138.933 143.576 143.84C138.99 148.747 132.376 151.2 123.736 151.2ZM123.736 135.2C129.816 135.2 132.856 131.52 132.856 124.16V63.04C132.856 55.68 129.816 52 123.736 52C117.656 52 114.616 55.68 114.616 63.04V124.16C114.616 131.52 117.656 135.2 123.736 135.2ZM204.144 101.92L182.864 37.6H201.584L213.584 78.72H213.904L225.904 37.6H243.024L221.744 101.92V149.6H204.144V101.92ZM273.58 151.2C264.94 151.2 258.327 148.747 253.74 143.84C249.153 138.933 246.86 132 246.86 123.04V64.16C246.86 55.2 249.153 48.2666 253.74 43.36C258.327 38.4533 264.94 36 273.58 36C282.22 36 288.833 38.4533 293.42 43.36C298.007 48.2666 300.3 55.2 300.3 64.16V123.04C300.3 132 298.007 138.933 293.42 143.84C288.833 148.747 282.22 151.2 273.58 151.2ZM273.58 135.2C279.66 135.2 282.7 131.52 282.7 124.16V63.04C282.7 55.68 279.66 52 273.58 52C267.5 52 264.46 55.68 264.46 63.04V124.16C264.46 131.52 267.5 135.2 273.58 135.2ZM337.803 151.2C329.269 151.2 322.763 148.8 318.283 144C313.803 139.093 311.563 132.107 311.563 123.04V37.6H329.163V124.32C329.163 128.16 329.909 130.933 331.403 132.64C333.003 134.347 335.243 135.2 338.123 135.2C341.003 135.2 343.189 134.347 344.683 132.64C346.283 130.933 347.083 128.16 347.083 124.32V37.6H364.043V123.04C364.043 132.107 361.803 139.093 357.323 144C352.843 148.8 346.336 151.2 337.803 151.2ZM376.578 37.6H402.658C411.724 37.6 418.338 39.7333 422.498 44C426.658 48.16 428.738 54.6133 428.738 63.36V70.24C428.738 81.8666 424.898 89.2266 417.218 92.32V92.64C421.484 93.92 424.471 96.5333 426.178 100.48C427.991 104.427 428.898 109.707 428.898 116.32V136C428.898 139.2 429.004 141.813 429.218 143.84C429.431 145.76 429.964 147.68 430.818 149.6H412.898C412.258 147.787 411.831 146.08 411.618 144.48C411.404 142.88 411.298 140 411.298 135.84V115.36C411.298 110.24 410.444 106.667 408.738 104.64C407.138 102.613 404.311 101.6 400.258 101.6H394.178V149.6H376.578V37.6ZM400.578 85.6C404.098 85.6 406.711 84.6933 408.418 82.88C410.231 81.0666 411.138 78.0266 411.138 73.76V65.12C411.138 61.0666 410.391 58.1333 408.898 56.32C407.511 54.5066 405.271 53.6 402.178 53.6H394.178V85.6H400.578Z" fill="black"/>
<path d="M54.4 53.6H90.4C90.4 33.7177 74.2823 17.6 54.4 17.6V53.6ZM36 53.6H0C0 73.4822 16.1178 89.6 36 89.6V53.6ZM36 37.6V1.59998C16.1178 1.59998 0 17.7177 0 37.6H36ZM90.4 37.6H126.4C126.4 17.7177 110.282 1.59998 90.4 1.59998V37.6ZM90.4 53.6V89.6C110.282 89.6 126.4 73.4822 126.4 53.6L90.4 53.6ZM72 53.6V17.6C52.1178 17.6 36 33.7177 36 53.6H72ZM72 149.6V185.6C91.8823 185.6 108 169.482 108 149.6H72ZM54.4 149.6H18.4C18.4 169.482 34.5178 185.6 54.4 185.6V149.6ZM54.4 53.6V17.6H36V53.6V89.6H54.4V53.6ZM36 53.6H72V37.6H36H0V53.6H36ZM36 37.6V73.6H90.4V37.6V1.59998H36V37.6ZM90.4 37.6H54.4V53.6H90.4H126.4V37.6H90.4ZM90.4 53.6V17.6H72V53.6V89.6H90.4V53.6ZM72 53.6H36V149.6H72H108V53.6H72ZM72 149.6V113.6H54.4V149.6V185.6H72V149.6ZM54.4 149.6H90.4V53.6H54.4H18.4V149.6H54.4ZM103.896 143.84L130.195 119.256V119.256L103.896 143.84ZM103.896 43.36L130.195 67.9438V67.9438L103.896 43.36ZM143.576 43.36L117.277 67.9438L117.277 67.9438L143.576 43.36ZM143.576 143.84L117.277 119.256L117.277 119.256L143.576 143.84ZM123.736 151.2V115.2C122.761 115.2 123.329 115.056 124.817 115.608C126.482 116.225 128.478 117.419 130.195 119.256L103.896 143.84L77.5973 168.424C90.8101 182.558 108.146 187.2 123.736 187.2V151.2ZM103.896 143.84L130.195 119.256C131.76 120.93 132.571 122.615 132.915 123.655C133.213 124.554 133.016 124.517 133.016 123.04H97.0163H61.0163C61.0163 138.011 64.9324 154.875 77.5973 168.424L103.896 143.84ZM97.0163 123.04H133.016V64.16H97.0163H61.0163V123.04H97.0163ZM97.0163 64.16H133.016C133.016 62.6828 133.213 62.6458 132.915 63.5453C132.571 64.5853 131.76 66.2703 130.195 67.9438L103.896 43.36L77.5973 18.7762C64.9324 32.3246 61.0163 49.1892 61.0163 64.16H97.0163ZM103.896 43.36L130.195 67.9438C128.478 69.7809 126.482 70.9747 124.817 71.5924C123.329 72.1444 122.761 72 123.736 72V36V-3.05176e-05C108.146 -3.05176e-05 90.8101 4.64156 77.5973 18.7762L103.896 43.36ZM123.736 36V72C124.712 72 124.143 72.1444 122.655 71.5924C120.99 70.9747 118.995 69.7809 117.277 67.9438L143.576 43.36L169.875 18.7762C156.662 4.64156 139.327 -3.05176e-05 123.736 -3.05176e-05V36ZM143.576 43.36L117.277 67.9438C115.713 66.2703 114.901 64.5854 114.557 63.5453C114.26 62.6458 114.456 62.6828 114.456 64.16H150.456H186.456C186.456 49.1892 182.54 32.3246 169.875 18.7762L143.576 43.36ZM150.456 64.16H114.456V123.04H150.456H186.456V64.16H150.456ZM150.456 123.04H114.456C114.456 124.517 114.26 124.554 114.557 123.655C114.901 122.615 115.713 120.93 117.277 119.256L143.576 143.84L169.875 168.424C182.54 154.875 186.456 138.011 186.456 123.04H150.456ZM143.576 143.84L117.277 119.256C118.995 117.419 120.99 116.225 122.655 115.608C124.143 115.056 124.712 115.2 123.736 115.2V151.2V187.2C139.327 187.2 156.662 182.558 169.875 168.424L143.576 143.84ZM123.736 135.2V171.2C134.33 171.2 148.174 167.663 158.331 155.368C167.4 144.389 168.856 131.894 168.856 124.16H132.856H96.8563C96.8563 123.786 96.7927 116.81 102.822 109.512C109.939 100.897 119.223 99.2 123.736 99.2V135.2ZM132.856 124.16H168.856V63.04H132.856H96.8563V124.16H132.856ZM132.856 63.04H168.856C168.856 55.3059 167.4 42.8105 158.331 31.8322C148.174 19.5369 134.33 16 123.736 16V52V88C119.223 88 109.939 86.303 102.822 77.6877C96.7927 70.3895 96.8563 63.4141 96.8563 63.04H132.856ZM123.736 52V16C113.143 16 99.2986 19.5369 89.1416 31.8322C80.0727 42.8105 78.6163 55.3059 78.6163 63.04H114.616H150.616C150.616 63.4141 150.68 70.3895 144.651 77.6877C137.534 86.303 128.25 88 123.736 88V52ZM114.616 63.04H78.6163V124.16H114.616H150.616V63.04H114.616ZM114.616 124.16H78.6163C78.6163 131.894 80.0727 144.389 89.1416 155.368C99.2986 167.663 113.143 171.2 123.736 171.2V135.2V99.2C128.25 99.2 137.534 100.897 144.651 109.512C150.68 116.81 150.616 123.786 150.616 124.16H114.616ZM204.144 101.92H240.144C240.144 98.0777 239.529 94.2602 238.322 90.6123L204.144 101.92ZM182.864 37.6V1.59998C171.306 1.59998 160.451 7.14914 153.683 16.5177C146.914 25.8862 145.055 37.9348 148.686 48.9076L182.864 37.6ZM201.584 37.6L236.142 27.5148C231.661 12.1574 217.582 1.59998 201.584 1.59998V37.6ZM213.584 78.72L179.025 88.8051C183.507 104.163 197.586 114.72 213.584 114.72V78.72ZM213.904 78.72V114.72C229.902 114.72 243.981 104.163 248.462 88.8051L213.904 78.72ZM225.904 37.6V1.59998C209.906 1.59998 195.827 12.1574 191.345 27.5148L225.904 37.6ZM243.024 37.6L277.202 48.9076C280.832 37.9348 278.973 25.8862 272.205 16.5177C265.436 7.14914 254.581 1.59998 243.024 1.59998V37.6ZM221.744 101.92L187.566 90.6123C186.359 94.2602 185.744 98.0777 185.744 101.92H221.744ZM221.744 149.6V185.6C241.626 185.6 257.744 169.482 257.744 149.6H221.744ZM204.144 149.6H168.144C168.144 169.482 184.262 185.6 204.144 185.6V149.6ZM204.144 101.92L238.322 90.6123L217.042 26.2923L182.864 37.6L148.686 48.9076L169.966 113.228L204.144 101.92ZM182.864 37.6V73.6H201.584V37.6V1.59998H182.864V37.6ZM201.584 37.6L167.025 47.6851L179.025 88.8051L213.584 78.72L248.142 68.6348L236.142 27.5148L201.584 37.6ZM213.584 78.72V114.72H213.904V78.72V42.72H213.584V78.72ZM213.904 78.72L248.462 88.8051L260.462 47.6851L225.904 37.6L191.345 27.5148L179.345 68.6348L213.904 78.72ZM225.904 37.6V73.6H243.024V37.6V1.59998H225.904V37.6ZM243.024 37.6L208.846 26.2923L187.566 90.6123L221.744 101.92L255.922 113.228L277.202 48.9076L243.024 37.6ZM221.744 101.92H185.744V149.6H221.744H257.744V101.92H221.744ZM221.744 149.6V113.6H204.144V149.6V185.6H221.744V149.6ZM204.144 149.6H240.144V101.92H204.144H168.144V149.6H204.144ZM253.74 143.84L280.039 119.256V119.256L253.74 143.84ZM253.74 43.36L280.039 67.9438V67.9438L253.74 43.36ZM293.42 43.36L267.121 67.9438V67.9438L293.42 43.36ZM293.42 143.84L267.121 119.256V119.256L293.42 143.84ZM273.58 151.2V115.2C272.605 115.2 273.173 115.056 274.661 115.608C276.326 116.225 278.322 117.419 280.039 119.256L253.74 143.84L227.441 168.424C240.654 182.558 257.99 187.2 273.58 187.2V151.2ZM253.74 143.84L280.039 119.256C281.603 120.93 282.415 122.615 282.759 123.655C283.056 124.554 282.86 124.517 282.86 123.04H246.86H210.86C210.86 138.011 214.776 154.875 227.441 168.424L253.74 143.84ZM246.86 123.04H282.86V64.16H246.86H210.86V123.04H246.86ZM246.86 64.16H282.86C282.86 62.6828 283.056 62.6458 282.759 63.5453C282.415 64.5853 281.603 66.2703 280.039 67.9438L253.74 43.36L227.441 18.7762C214.776 32.3246 210.86 49.1892 210.86 64.16H246.86ZM253.74 43.36L280.039 67.9438C278.322 69.7809 276.326 70.9747 274.661 71.5924C273.173 72.1444 272.605 72 273.58 72V36V-3.05176e-05C257.99 -3.05176e-05 240.654 4.64156 227.441 18.7762L253.74 43.36ZM273.58 36V72C274.555 72 273.987 72.1444 272.499 71.5924C270.834 70.9747 268.838 69.7809 267.121 67.9438L293.42 43.36L319.719 18.7762C306.506 4.64156 289.17 -3.05176e-05 273.58 -3.05176e-05V36ZM293.42 43.36L267.121 67.9438C265.557 66.2703 264.745 64.5854 264.401 63.5453C264.104 62.6458 264.3 62.6828 264.3 64.16H300.3H336.3C336.3 49.1892 332.384 32.3246 319.719 18.7762L293.42 43.36ZM300.3 64.16H264.3V123.04H300.3H336.3V64.16H300.3ZM300.3 123.04H264.3C264.3 124.517 264.104 124.554 264.401 123.655C264.745 122.615 265.557 120.93 267.121 119.256L293.42 143.84L319.719 168.424C332.384 154.875 336.3 138.011 336.3 123.04H300.3ZM293.42 143.84L267.121 119.256C268.838 117.419 270.834 116.225 272.499 115.608C273.987 115.056 274.555 115.2 273.58 115.2V151.2V187.2C289.17 187.2 306.506 182.558 319.719 168.424L293.42 143.84ZM273.58 135.2V171.2C284.173 171.2 298.018 167.663 308.175 155.368C317.244 144.389 318.7 131.894 318.7 124.16H282.7H246.7C246.7 123.786 246.636 116.81 252.665 109.512C259.782 100.897 269.067 99.2 273.58 99.2V135.2ZM282.7 124.16H318.7V63.04H282.7H246.7V124.16H282.7ZM282.7 63.04H318.7C318.7 55.3059 317.244 42.8105 308.175 31.8322C298.018 19.5369 284.173 16 273.58 16V52V88C269.067 88 259.782 86.303 252.665 77.6877C246.636 70.3895 246.7 63.4141 246.7 63.04H282.7ZM273.58 52V16C262.987 16 249.142 19.5369 238.985 31.8322C229.916 42.8105 228.46 55.3059 228.46 63.04H264.46H300.46C300.46 63.4141 300.524 70.3895 294.495 77.6877C287.378 86.303 278.093 88 273.58 88V52ZM264.46 63.04H228.46V124.16H264.46H300.46V63.04H264.46ZM264.46 124.16H228.46C228.46 131.894 229.916 144.389 238.985 155.368C249.142 167.663 262.987 171.2 273.58 171.2V135.2V99.2C278.093 99.2 287.378 100.897 294.495 109.512C300.524 116.81 300.46 123.786 300.46 124.16H264.46ZM318.283 144L291.697 168.274C291.786 168.371 291.875 168.467 291.965 168.563L318.283 144ZM311.563 37.6V1.59998C291.68 1.59998 275.563 17.7177 275.563 37.6H311.563ZM329.162 37.6H365.162C365.162 17.7177 349.045 1.59998 329.162 1.59998V37.6ZM331.403 132.64L304.31 156.346C304.581 156.656 304.857 156.961 305.139 157.262L331.403 132.64ZM344.683 132.64L318.419 108.018C318.137 108.319 317.861 108.624 317.59 108.934L344.683 132.64ZM347.083 37.6V1.59998C327.2 1.59998 311.083 17.7177 311.083 37.6H347.083ZM364.042 37.6H400.042C400.042 17.7177 383.925 1.59998 364.042 1.59998V37.6ZM357.322 144L383.64 168.563C383.73 168.467 383.819 168.371 383.908 168.274L357.322 144ZM337.803 151.2V115.2C336.842 115.2 337.445 115.058 338.981 115.624C340.698 116.258 342.788 117.494 344.6 119.437L318.283 144L291.965 168.563C305.14 182.68 322.442 187.2 337.803 187.2V151.2ZM318.283 144L344.868 119.726C346.468 121.478 347.229 123.171 347.524 124.089C347.774 124.871 347.562 124.686 347.562 123.04H311.563H275.563C275.563 137.779 279.248 154.639 291.697 168.274L318.283 144ZM311.563 123.04H347.562V37.6H311.563H275.563V123.04H311.563ZM311.563 37.6V73.6H329.162V37.6V1.59998H311.563V37.6ZM329.162 37.6H293.162V124.32H329.162H365.162V37.6H329.162ZM329.162 124.32H293.162C293.162 131.31 294.241 144.839 304.31 156.346L331.403 132.64L358.495 108.934C362.199 113.166 363.799 117.376 364.485 119.921C365.156 122.413 365.162 124.069 365.162 124.32H329.162ZM331.403 132.64L305.139 157.262C315.066 167.85 327.758 171.2 338.123 171.2V135.2V99.2C340.203 99.2 343.393 99.5067 347.098 100.918C350.958 102.389 354.632 104.782 357.666 108.018L331.403 132.64ZM338.123 135.2V171.2C348.374 171.2 361.687 167.876 371.775 156.346L344.683 132.64L317.59 108.934C320.79 105.277 324.733 102.624 328.835 101.023C332.741 99.4988 336.069 99.2 338.123 99.2V135.2ZM344.683 132.64L370.946 157.262C381.767 145.719 383.083 131.774 383.083 124.32H347.083H311.083C311.083 123.904 311.107 122.026 311.893 119.302C312.708 116.475 314.519 112.178 318.419 108.018L344.683 132.64ZM347.083 124.32H383.083V37.6H347.083H311.083V124.32H347.083ZM347.083 37.6V73.6H364.042V37.6V1.59998H347.083V37.6ZM364.042 37.6H328.042V123.04H364.042H400.042V37.6H364.042ZM364.042 123.04H328.042C328.042 124.686 327.831 124.871 328.081 124.089C328.376 123.171 329.137 121.478 330.737 119.726L357.322 144L383.908 168.274C396.357 154.639 400.042 137.779 400.042 123.04H364.042ZM357.322 144L331.005 119.437C332.817 117.494 334.907 116.258 336.624 115.624C338.16 115.058 338.763 115.2 337.803 115.2V151.2V187.2C353.163 187.2 370.465 182.68 383.64 168.563L357.322 144ZM376.577 37.6V1.59998C356.695 1.59998 340.577 17.7177 340.577 37.6H376.577ZM422.498 44L396.721 69.1316C396.828 69.2403 396.934 69.3484 397.042 69.4558L422.498 44ZM417.218 92.32L403.768 58.9269C390.142 64.4149 381.218 77.6308 381.218 92.32H417.218ZM417.218 92.64H381.218C381.218 108.538 391.646 122.553 406.873 127.122L417.218 92.64ZM426.178 100.48L393.135 114.769C393.242 115.017 393.352 115.264 393.465 115.51L426.178 100.48ZM429.218 143.84L393.415 147.609C393.423 147.678 393.43 147.747 393.438 147.816L429.218 143.84ZM430.817 149.6V185.6C443.004 185.6 454.363 179.435 461.003 169.217C467.644 158.999 468.664 146.115 463.715 134.979L430.817 149.6ZM412.898 149.6L378.95 161.581C384.03 175.975 397.634 185.6 412.898 185.6V149.6ZM408.738 104.64L380.482 126.947C380.717 127.245 380.956 127.539 381.201 127.829L408.738 104.64ZM394.178 101.6V65.6C374.295 65.6 358.178 81.7177 358.178 101.6H394.178ZM394.178 149.6V185.6C414.06 185.6 430.178 169.482 430.178 149.6H394.178ZM376.577 149.6H340.577C340.577 169.482 356.695 185.6 376.577 185.6V149.6ZM408.417 82.88L382.962 57.4241C382.705 57.6812 382.451 57.9421 382.202 58.2069L408.417 82.88ZM408.898 56.32L380.301 78.1882C380.564 78.5321 380.833 78.8712 381.108 79.2055L408.898 56.32ZM394.178 53.6V17.6C374.295 17.6 358.178 33.7177 358.178 53.6H394.178ZM394.178 85.6H358.178C358.178 105.482 374.295 121.6 394.178 121.6V85.6ZM376.577 37.6V73.6H402.658V37.6V1.59998H376.577V37.6ZM402.658 37.6V73.6C404.516 73.6 404.528 73.8364 403.365 73.4615C402.023 73.0284 399.364 71.842 396.721 69.1316L422.498 44L448.274 18.8684C434.505 4.74648 416.437 1.59998 402.658 1.59998V37.6ZM422.498 44L397.042 69.4558C394.508 66.9226 393.357 64.3799 392.913 63.0038C392.525 61.7999 392.738 61.7076 392.738 63.36H428.738H464.738C464.738 49.6742 461.543 32.1341 447.953 18.5441L422.498 44ZM428.738 63.36H392.738V70.24H428.738H464.738V63.36H428.738ZM428.738 70.24H392.738C392.738 72.4434 392.322 70.9303 393.94 67.8276C394.812 66.1572 396.154 64.2744 398.066 62.5398C399.979 60.8042 401.994 59.6414 403.768 58.9269L417.218 92.32L430.667 125.713C442.483 120.954 451.9 112.391 457.775 101.132C463.233 90.6697 464.738 79.6632 464.738 70.24H428.738ZM417.218 92.32H381.218V92.64H417.218H453.218V92.32H417.218ZM417.218 92.64L406.873 127.122C404.681 126.464 401.782 125.129 398.951 122.653C396.092 120.151 394.224 117.287 393.135 114.769L426.178 100.48L459.22 86.1912C453.126 72.0983 441.583 62.3645 427.562 58.1582L417.218 92.64ZM426.178 100.48L393.465 115.51C393.125 114.769 392.934 114.201 392.837 113.87C392.739 113.539 392.721 113.399 392.737 113.493C392.753 113.585 392.795 113.86 392.832 114.346C392.869 114.831 392.898 115.483 392.898 116.32H428.898H464.898C464.898 106.973 463.702 95.9232 458.89 85.45L426.178 100.48ZM428.898 116.32H392.898V136H428.898H464.898V116.32H428.898ZM428.898 136H392.898C392.898 139.837 393.018 143.835 393.415 147.609L429.218 143.84L465.02 140.071C464.99 139.791 464.898 138.563 464.898 136H428.898ZM429.218 143.84L393.438 147.816C394.094 153.718 395.696 159.216 397.92 164.221L430.817 149.6L463.715 134.979C464.232 136.143 464.768 137.801 464.997 139.864L429.218 143.84ZM430.817 149.6V113.6H412.898V149.6V185.6H430.817V149.6ZM412.898 149.6L446.845 137.618C446.88 137.717 447.132 138.446 447.302 139.722L411.618 144.48L375.933 149.238C376.53 153.713 377.635 157.857 378.95 161.581L412.898 149.6ZM411.618 144.48L447.302 139.722C447.375 140.27 447.392 140.562 447.386 140.475C447.382 140.421 447.368 140.205 447.353 139.788C447.321 138.938 447.298 137.652 447.298 135.84H411.298H375.298C375.298 139.874 375.365 144.973 375.933 149.238L411.618 144.48ZM411.298 135.84H447.298V115.36H411.298H375.298V135.84H411.298ZM411.298 115.36H447.298C447.298 108.578 446.64 93.7599 436.274 81.4511L408.738 104.64L381.201 127.829C377.319 123.22 376.044 118.883 375.642 117.202C375.215 115.414 375.298 114.604 375.298 115.36H411.298ZM408.738 104.64L436.993 82.3328C425.426 67.6805 409 65.6 400.257 65.6V101.6V137.6C399.621 137.6 388.849 137.546 380.482 126.947L408.738 104.64ZM400.257 101.6V65.6H394.178V101.6V137.6H400.257V101.6ZM394.178 101.6H358.178V149.6H394.178H430.178V101.6H394.178ZM394.178 149.6V113.6H376.577V149.6V185.6H394.178V149.6ZM376.577 149.6H412.577V37.6H376.577H340.577V149.6H376.577ZM400.577 85.6V121.6C409.833 121.6 423.703 119.166 434.633 107.553L408.417 82.88L382.202 58.2069C389.718 50.2211 398.362 49.6 400.577 49.6V85.6ZM408.417 82.88L433.873 108.336C445.741 96.468 447.137 81.5773 447.137 73.76H411.137H375.137C375.137 73.5269 375.141 71.6943 375.959 68.951C376.815 66.0818 378.753 61.6325 382.962 57.4241L408.417 82.88ZM411.137 73.76H447.137V65.12H411.137H375.137V73.76H411.137ZM411.137 65.12H447.137C447.137 58.2086 446.161 44.9387 436.687 33.4345L408.898 56.32L381.108 79.2055C377.662 75.0211 376.26 71.0006 375.69 68.7604C375.124 66.5351 375.137 65.1461 375.137 65.12H411.137ZM408.898 56.32L437.494 34.4518C427.062 20.8092 412.206 17.6 402.178 17.6V53.6V89.6C400.336 89.6 396.859 89.3454 392.671 87.6501C388.186 85.835 383.75 82.6988 380.301 78.1882L408.898 56.32ZM402.178 53.6V17.6H394.178V53.6V89.6H402.178V53.6ZM394.178 53.6H358.178V85.6H394.178H430.178V53.6H394.178ZM394.178 85.6V121.6H400.577V85.6V49.6H394.178V85.6Z" fill="#299B8E" mask="url(#path-1-outside-1_9_12)"/>
</svg>
